<svg width="134" height="43" viewBox="0 0 134 43" fill="none" xmlns="http://www.w3.org/2000/svg">
<g clip-path="url(#clip0_2_48)">
<path d="M2.33001 30.55C2.42001 30.3 2.55001 30.13 2.73001 30.02C2.92001 29.92 3.11001 29.93 3.32001 30.05C4.63001 30.71 6.28001 31.32 8.25001 31.9C10.22 32.48 12.34 32.76 14.6 32.76C17.89 32.76 19.53 31.94 19.53 30.29C19.53 29.1 17.47 27.93 13.36 26.78C11.63 26.29 9.98001 25.66 8.40001 24.9C6.81001 24.14 5.42001 23.23 4.20001 22.15C2.99001 21.08 2.03001 19.85 1.33001 18.45C0.630013 17.05 0.280013 15.45 0.280013 13.64C0.280013 11.71 0.690013 9.93 1.51001 8.31C2.33001 6.68 3.51001 5.28 5.05001 4.08C6.59001 2.89 8.45001 1.96 10.63 1.3C12.81 0.639996 15.26 0.309998 17.97 0.309998C20.81 0.309998 23.22 0.519997 25.22 0.929997C27.22 1.34 28.99 1.9 30.55 2.6C30.96 2.77 31.11 3.05 30.98 3.46L28.39 12.28C28.22 12.82 27.9 12.98 27.41 12.78C26.46 12.37 25.18 11.93 23.56 11.45C21.93 10.98 20.01 10.74 17.79 10.74C16.35 10.74 15.24 10.92 14.46 11.27C13.68 11.62 13.29 12.14 13.29 12.84C13.29 13.66 13.88 14.31 15.08 14.78C16.27 15.25 18.12 15.88 20.63 16.66C24.7 17.93 27.71 19.62 29.66 21.71C31.61 23.81 32.59 26.46 32.59 29.67C32.59 31.44 32.23 33.14 31.51 34.78C30.79 36.43 29.67 37.89 28.15 39.16C26.63 40.43 24.68 41.45 22.29 42.21C19.9 42.97 17.05 43.35 13.72 43.35C12.36 43.35 11.03 43.27 9.71001 43.1C8.40001 42.93 7.15001 42.71 5.98001 42.42C4.81001 42.13 3.75001 41.82 2.81001 41.5C1.86001 41.17 1.06001 40.84 0.400013 40.51C0.240013 40.43 0.110013 40.3 0.0300127 40.14C-0.0599873 39.98 -0.079987 39.83 -0.039987 39.71L2.33001 30.55Z" fill="#42454C"/>
<path d="M81.95 1.17H69.48C69.29 1.17 69.12 1.26 69 1.4L58.7 14.35V1.78C58.7 1.44 58.42 1.16 58.08 1.16H47.36C47.02 1.16 46.74 1.44 46.74 1.78V42.05C46.74 42.39 47.02 42.67 47.36 42.67H58.08C58.42 42.67 58.7 42.39 58.7 42.05V28.71L68.97 42.42C69.09 42.58 69.27 42.67 69.46 42.67H81.95C82.47 42.67 82.75 42.07 82.43 41.67L66.71 21.93L82.43 2.17C82.76 1.76 82.47 1.17 81.95 1.17Z" fill="#42454C"/>
<path d="M113.88 15.47L121.35 1.49C121.46 1.29 121.67 1.16 121.89 1.16H133.58C134.06 1.16 134.35 1.68 134.11 2.09L119.93 26.37V42.05C119.93 42.39 119.65 42.67 119.31 42.67H113.86H108.41C108.07 42.67 107.79 42.39 107.79 42.05V26.37L93.61 2.09C93.37 1.68 93.67 1.16 94.14 1.16H105.83C106.06 1.16 106.27 1.29 106.37 1.49L113.88 15.47Z" fill="#42454C"/>
</g>
<defs>
<clipPath id="clip0_2_48">
<rect width="134" height="43" fill="white"/>
</clipPath>
</defs>
</svg>
