<svg width="63" height="38" viewBox="0 0 63 38" fill="none" xmlns="http://www.w3.org/2000/svg">
<g clip-path="url(#clip0_1_45)">
<path d="M6.936 4.496V25.232C6.936 27.504 7.528 29.248 8.712 30.464C9.896 31.648 11.56 32.24 13.704 32.24C15.88 32.24 17.56 31.648 18.744 30.464C19.928 29.248 20.52 27.504 20.52 25.232V4.496H27.288V25.184C27.288 28.032 26.664 30.448 25.416 32.432C24.2 34.384 22.552 35.856 20.472 36.848C18.424 37.84 16.136 38.336 13.608 38.336C11.112 38.336 8.84 37.84 6.792 36.848C4.776 35.856 3.176 34.384 1.992 32.432C0.808 30.448 0.216 28.032 0.216 25.184V4.496H6.936ZM38.9648 32.48H50.8208V38H31.3328V32.576L42.9488 16.928H31.3808V11.408H50.6768V16.832L38.9648 32.48ZM58.4719 8.24C57.2879 8.24 56.2959 7.872 55.4959 7.136C54.7279 6.368 54.3439 5.424 54.3439 4.304C54.3439 3.184 54.7279 2.256 55.4959 1.52C56.2959 0.751996 57.2879 0.367996 58.4719 0.367996C59.6559 0.367996 60.6319 0.751996 61.3999 1.52C62.1999 2.256 62.5999 3.184 62.5999 4.304C62.5999 5.424 62.1999 6.368 61.3999 7.136C60.6319 7.872 59.6559 8.24 58.4719 8.24ZM61.7839 11.408V38H55.0639V11.408H61.7839Z" fill="url(#paint0_linear_1_45)"/>
</g>
<defs>
<linearGradient id="paint0_linear_1_45" x1="83" y1="-6" x2="83" y2="48" gradientUnits="userSpaceOnUse">
<stop stop-color="#00E6BE"/>
<stop offset="1" stop-color="#793BFF"/>
</linearGradient>
<clipPath id="clip0_1_45">
<rect width="63" height="38" fill="white"/>
</clipPath>
</defs>
</svg>
